<svg xmlns="http://www.w3.org/2000/svg" width="1920" height="1080" viewBox="0 0 1920 1080"><g id="Layer_2" data-name="Layer 2"><g id="Learn"><g id="A_-_Working_from_Home" data-name="A - Working from Home"><rect width="1920" height="1080" fill="#fff"/><g id="lamp"><ellipse cx="1237.781" cy="336.2813" rx="29.1038" ry="80.7032" transform="translate(-44.5752 308.9062) rotate(-13.9764)" fill="#e4e4e4"/><path d="M1298.4331,293.5966l-2.7527.6852a70.6487,70.6487,0,0,1-33.4413.2725,38.9214,38.9214,0,1,0,16.15,67.6018,74.9729,74.9729,0,0,1,30.2265-15.9155l2.75-.6845Z" fill="#fff"/><path d="M1322.8135,263.2652h0l-97.9158-4.963c14.579,4.6321,31.8171,33.55,41.1255,70.95s7.6365,71.0243-3.07,81.95l84.1661-50.2813h0A122.9184,122.9184,0,0,0,1322.8135,263.2652Z" fill="#c4c4c4"/><path d="M1378.2088,312.8023l-1.3376-5.3743,24.2288-6.03a50.8184,50.8184,0,0,0-1.0436-5.5049v0l-24.5363,6.1068-1.3376-5.3742,24.2357-6.032a50.1407,50.1407,0,0,0-2.2647-5.2013l-23.3222,5.8047-1.3375-5.3742,21.78-5.4209a50.3285,50.3285,0,0,0-54.198-21.1839l-16.2626,4.0476,24.3054,97.6553,16.2626-4.0475a50.3253,50.3253,0,0,0,38.1495-49.8754Z" fill="#c4c4c4"/><path d="M1192.5669,863.4453V908.86c0,17.9887,61.1693,32.5711,136.6253,32.5711s136.6254-14.5824,136.6254-32.5711V863.4453Z" fill="#999"/><rect x="1393.4358" y="579.207" width="11.4422" height="306.0101" transform="translate(672.4521 -669.8131) rotate(34.977)" fill="#c4c4c4"/><rect x="1421.5867" y="579.3894" width="11.4422" height="306.0101" transform="translate(677.6412 -685.9176) rotate(34.977)" fill="#c4c4c4"/><circle cx="1486.8667" cy="606.8425" r="10.4048" fill="#999"/><circle cx="1311.6974" cy="857.6483" r="10.4048" fill="#c4c4c4"/><circle cx="1339.598" cy="857.7641" r="10.4048" fill="#c4c4c4"/><rect x="1429.0953" y="323.8251" width="11.4422" height="306.0101" transform="translate(2905.9793 127.9111) rotate(148.2745)" fill="#c4c4c4"/><path d="M1408.3289,321.9478h0a5.7211,5.7211,0,0,1,5.7211,5.7211V634.1516a0,0,0,0,1,0,0h-11.4422a0,0,0,0,1,0,0V327.6689A5.7211,5.7211,0,0,1,1408.3289,321.9478Z" transform="translate(2857.6036 144.0969) rotate(148.2745)" fill="#c4c4c4"/><circle cx="1354.3585" cy="346.6876" r="10.4048" fill="#999"/><circle cx="1326.2425" cy="345.2731" r="10.4048" fill="#c4c4c4"/><ellipse cx="1329.1922" cy="863.4453" rx="136.6253" ry="32.5713" fill="#c4c4c4"/><path d="M1500.9421,592.9108h0a5.4262,5.4262,0,0,1,5.4262,5.4262v17.3a5.4261,5.4261,0,0,1-5.4261,5.4261h0a5.4261,5.4261,0,0,1-5.4261-5.4261v-17.3a5.4261,5.4261,0,0,1,5.4261-5.4261Z" transform="translate(878.5908 2101.6239) rotate(-89.4123)" fill="#c4c4c4"/><circle cx="1515.0176" cy="607.0249" r="10.4048" fill="#999"/></g><g id="Pillow"><path id="pilllw" d="M1006.5022,787.9964c-29.464-32.3822-65.5329-55.6074-110.0054-54.5437-40.3655.9659-80.4309,16.5595-110.4024,43.6827a106.8731,106.8731,0,0,0-7.8183-8.7884c-31.0676-31.3894-71.0669-40.8272-104.467-66.0357-37.3291-28.1735-68.7421-47.6555-117.3456-50.7778-46.598-2.9934-92.93,7.1357-138.5258,17.204q-47.3843,10.4633-94.7682,20.9259c-7.5954,1.677-15.7051,3.6434-20.92,9.4142-9.3027,10.2951-4.8117,26.4739.19,39.417,10.7,27.69,21.5864,55.7252,38.9833,79.7787,44.3374,61.302,125.311,87.2235,200.908,84.2445S690.1215,872.0243,760.7282,844.85c1.4232-.548,2.8613-1.111,4.3038-1.6948.3627.4873.7333.97,1.1317,1.4348,8.8787,10.3573,23.7863,12.564,37.3436,14.086q70.8284,7.9523,141.6572,15.9038c15.2926,1.717,30.9166,3.419,45.9438.1033s29.6194-12.6166,35.1374-26.9819C1034.1716,827.0675,1021.378,804.3455,1006.5022,787.9964Z" fill="#e4e4e4"/><path d="M370.1563,750.9727c-13.0222-14.2255-27.4044-29.2371-46.35-32.8415a164.4826,164.4826,0,0,0,46.8258,114.0734c9.9731,10.111,108.1089,70.8231,110.5488,40.97.9586-11.7283-44.7408-49.7934-53.2444-59.0828Z" fill="#9f1c37"/></g><path d="M620.3832,317.5541a86.0494,86.0494,0,0,1,2.418,27.9334c-.2689,3.4554-.745,6.9567-.1031,10.3626s2.6627,6.7921,5.9179,7.9818" fill="#42221b"/><path d="M642.1222,282.0125c.6586,10.6707,1.3373,21.4568,4.4546,31.6832s8.9524,19.9962,17.94,25.7851" fill="#42221b"/><path d="M515.6723,343.3868c2.4193,4.5715,7.2636,7.6525,9.057,12.5038.8787,2.3767,1.1542,5.3206,3.3154,6.6437,2.1426-1.6567,2.7932-4.5582,3.3013-7.2185q1.2891-6.7488,2.5763-13.4979c.927-4.8644,1.8543-9.8487,1.0658-14.7375-1.0172-6.3064-4.7709-11.7895-8.5356-16.95-2.2814-3.1274-7.2374-10.1163-11.77-7.6863-4.2817,2.2955-2.1713,7.8834-1.4413,11.1154C515.3927,323.0859,510.9946,334.5477,515.6723,343.3868Z" fill="#42221b"/><path d="M604.436,328.9868c.3475-3.0482-.4678-5.4472-4.2953-5.55-23.8769-.64-48.7631,2.6157-69.71-10.5887-2.6033-1.6411-5.9184-3.4717-8.5226-1.8321-2.9154,1.8357-2.2071,6.183-1.3562,9.5215a78.5348,78.5348,0,0,1,2.2415,13.9251c.7518,10.78-.8077,17.8942-9.1806,24.6582-5.31,4.2894-13.4756,13.1634-10.5586,20.7168.96,2.4865,3.356,3.89,5.5785,5.099l76.9066,41.836a10.899,10.899,0,0,0,4.33,1.6122c3.956.2636,6.8767-3.7386,9.0557-7.3148,5.4946-9.0175,12.6179-17.0841,16.8461-26.8481,1.2452-2.8753,2.1056-4.3405.6446-7.09-1.0914-2.054-3.1887-3.8293-4.8236-5.4414-3.3269-3.2805-7.0121-6.2778-9.461-10.3247-5.6329-9.3088-3.2563-21.18-.7039-31.7571C602.0824,336.8938,604.0347,332.5073,604.436,328.9868Z" fill="#f7e2d0"/><path d="M607.2908,401.0447c8.2478,3.0334,9.6682,13.899,9.7188,22.6867q.1313,22.8383.2627,45.6763c.0553,9.6232.1083,19.2842-1.1827,28.8205-.3579,2.643-.9218,5.4724-2.87,7.2933-2.1,1.9619-5.2766,2.23-8.1282,1.8756-8.1859-1.0165-15.38-6.2344-20.536-12.6735s-8.5587-14.0719-11.9056-21.6112q-8.19-18.45-16.38-36.8994c-2.8132-6.3541-9.2144-19.0387-2.3929-25.3511,5.9395-5.4963,19.3768,1.6737,26.9673,1.4646a41.018,41.018,0,0,0,14.8881-3.0436C597.2169,408.6514,607.336,401.0609,607.2908,401.0447Z" fill="#9f1c37"/><path d="M385.4384,540.0325a706.4417,706.4417,0,0,1,18.294-109.6673c1.5818-6.35,3.3006-12.7913,6.7965-18.3228,4.1335-6.54,10.4695-11.36,16.9435-15.5965a174.9557,174.9557,0,0,1,44.9813-21.0044c2.9771-.9022,6.0989-1.7911,8.3814-3.9046a20.9427,20.9427,0,0,0,3.411-4.6574c6.3455-10.4294,17.2865-29.22,29.9423-31.7818,11.3-2.2873,7.379,6.4608,9.6246,14.73,2.7607,10.1668,13.4022,13.43,18.9006,21.8023,2.5161,3.8311.76,8.0893,1.4179,12.1544.7878,4.8634,4.7311,9.8215,7.5429,13.724,6.5165,9.044,14.4586,16.9821,20.6394,26.2793,5.597,8.4189,9.6086,17.7731,14.4936,26.6241s10.8687,17.4266,19.2972,23.0091c6.7982-17.9584,1.1972-37.9335,1.2159-57.1356.0081-8.24,1.0667-16.5642-.4131-24.6706a79.8376,79.8376,0,0,0-2.84-10.2753c-2.7446-8.4444-7.5337-17.5581-5.7737-26.6061.3082-1.5846.8048-.4857,2.307-1.0772,2.5881-1.0191,7.8413,2.0778,9.8111,3.664a179.22,179.22,0,0,1,13.75,12.75c4.8866,4.89,7.85,11.4475,13.0264,16.0363,3.4526,3.0608,7.806,4.8729,12.0717,6.6312l35.1989,14.5091c5.1783,2.1345,10.4215,4.3056,14.8832,7.6916,7.2358,5.4912,11.8864,13.8249,14.5887,22.4972,2.5248,8.1028,28.7647,87.0363,34.8614,105.0962,6.0392,17.8891,12.9042,35.6847,22.6541,51.92,4.0291,6.7089,9.8726,18.3326,16.8282,22.3757,6.4213,3.7326,17.17,2.6983,24.3767,4.3412,11.1221,2.5355,22.419,13.0084,28.4585,22.1956,5.2783,8.0295,7.9508,17.4927,9.6776,26.9453,2.5048,13.7128,3.152,27.971-.18,41.5065-3.0327,12.3184-9.24,23.6131-16.0108,34.3412-9.7191,15.4-20.9474,30.1875-35.546,41.0731-13.2678,9.8936-28.7657,16.1222-44.4421,21.0751-4.9921,1.5772-10.556,2.6258-15.739,4.2321a43.83,43.83,0,0,0-6.742,2.6383c-6.8884,3.4711-10.7907,6.8714-19.2186,6.6879-7.2281-.1575-14.3352-1.97-21.5592-2.2592-12.6-.5051-24.8549,3.6107-37.2118,6.123s-26.0235,3.2167-36.7622-3.3926c-10.8362-6.6695-17.12-19.8743-29.0311-24.35-12.5031-4.6982-30.0247.46-37.2687-10.7619-4.8569-7.5239-1.4832-18.5115-6.9487-25.6055-7.3173-9.4976-23.3008-4.2827-33.4952-10.5931-8.4321-5.22-10.5-16.7029-17.5206-23.7065-4.8717-4.8594-11.673-7.1306-17.63-10.5738-7.6856-4.4418-13.8869-10.8083-19.0454-18.07-1.0032-1.4123-34.2534,13.2959-39.0761,14.3056-10.2922,2.1548-22.7741-5.39-27.9441-14.9075-2.8081-5.17-3.28-11.245-3.6694-17.1152-2.2322-33.673-3.64-67.4352-2.6268-101.1669Q383.7158,559.8837,385.4384,540.0325Z" fill="#f2ad22"/><path d="M491.9413,189.5559a36.852,36.852,0,0,1,4.26-10.3079c17.1287-27.5177,51.7642-40.5357,83.1082-39.7562,15.363.382,31.1471,3.725,43.5489,12.8008,25.2666,18.49,31.5054,53.5256,32.3523,82.81.2007,6.9419-.0011,13.9654-1.72,20.6941-1.1582,4.5333-2.9941,8.8878-3.8852,13.4812-1.0845,5.5907,6.056,10.5665,5.6686,16.2483-.78,11.4407-6.5983,21.9326-12.6057,31.4242-6.199,9.7941-13.3063,19.0932-19.198,28.994l-3.37,5.6623a6.47,6.47,0,0,1-2.5361,2.8,5.9428,5.9428,0,0,1-2.5386.3937,38.5762,38.5762,0,0,1-15.3608-3.2555,39.0839,39.0839,0,0,0-6.2959-2.558c-2.7174-.6652-4.4754.4784-6.95.7607-2.5892.2955-5.782-.5082-8.3508-.8839a100.6131,100.6131,0,0,1-16.5746-3.8724,110.77,110.77,0,0,1-31.1865-16.3031c-12.02-8.8393-18.5658-26.9533-25.8124-40.2518-9.38-17.2136-12.7882-36.7942-13.65-56.1843C490.28,219.54,488.4783,202.9587,491.9413,189.5559Z" fill="#f7e2d0"/><path d="M674.0374,245.6491a12.2475,12.2475,0,0,1-3.67-4.0755,39.2275,39.2275,0,0,1-3.5318-10.6865,90.6163,90.6163,0,0,1-1.5292-10.5815c.1792-.9512.4335-1.9348.5512-2.9094,1.35-11.1819,1.35-22.1019-1.2539-33.0477-1.3086-5.5-3.4018-10.4636-7.2881-14.3959s-7.5908-2.9126-12.6206-2.6268c-1.1343.0647-2.4634.4519-3.7046.053-4.1621-1.3388-5.0112-5.3249-6.2529-9.1306-3.1509-9.6538-7.8452-17.5024-15.9766-23.7593-5.9824-4.603-12.8432-6.41-20.122-6.7507-3.041-.1423-5.6783.8665-8.4219-.1677-2.35-.886-4.438-3.6431-5.7417-5.5288-1.9077-2.7586-1.5439-5.305-2.7759-8.3391a16.3217,16.3217,0,0,0-9.3213-8.9021c-2.5171-1.03-5.6084-1.3914-6.2119-4.4693-.2134-1.0884.3506-1.8984.5713-2.9756.9658-4.7119.0689-9.1931-4.2471-11.8283-1.7846-1.09-3.8154-1.1014-5.8159-1.3492-4.7358-.5866-9.5112-1.1679-14.2744-1.6438-6.2007-.62-12.4849-1.4379-18.7231-1.2224-9.5127.3286-18.5137,3.0862-27.4371,6.0384-6.5761,2.176-12.956,4.3623-18.521,8.3359-4.6792,3.3413-8.2817,7.3777-12.42,11.2639-4.5088,4.2346-9.9292,7.2246-13.4775,12.5637-7.3091,10.9983-7.5464,23.0359-5.3477,35.82A40.1961,40.1961,0,0,0,450.59,168.48c4.4859,8.3572,11.5953,13.4267,20.6822,16.3464-1.127.4844-2.396.8736-3.5181,1.41a39.998,39.998,0,0,0-7.5312,4.4453,22.2469,22.2469,0,0,0-5.5782,6.6785,26.69,26.69,0,0,0-2.76,8.175,26.0687,26.0687,0,0,1,3.7842-7.5017,20.9377,20.9377,0,0,1,6.04-5.45,38.2994,38.2994,0,0,1,7.4043-3.1375c.9209-.304,1.8882-.4792,2.81-.7522-2.9707,2.0129-6.0479,3.8423-8.5972,6.4a26.1963,26.1963,0,0,0-5.9092,8.8916,27.544,27.544,0,0,0-1.6992,10.4028c.0972,6.9624,1.7222,13.5266,1.9414,20.4226a28.3373,28.3373,0,0,1-1.3447,9.9858,18.8076,18.8076,0,0,1-5.645,8.3472,19.1241,19.1241,0,0,0,6.2221-8.1282,29.5589,29.5589,0,0,0,1.9956-10.1816c.1909-6.8572-1.021-13.6016-.7124-20.342a22.4433,22.4433,0,0,1,7.73-16.8872c2.0444-1.9837,4.5625-3.2464,6.9219-4.7774a36.9752,36.9752,0,0,0-4.499,3.6758,20.4839,20.4839,0,0,0-4.0738,6.0449,17.1623,17.1623,0,0,0-1.3955,6.9714,16.6924,16.6924,0,0,1,2.4727-6.4086,18.943,18.943,0,0,1,4.64-4.9007,34.4341,34.4341,0,0,1,4.4361-2.5991c-.4331,2.813-.8877,5.5469-1.2,8.3911-1.3589,12.3672-2.5166,24.3464,1.3515,36.3345,2.2491,6.9687,6.5933,12.7539,8.98,19.5962,2.5337,7.2639,3.6636,14.9194,8.3169,21.1711,2.0557,2.7617,4.5713,4.7237,6.55,7.49a32.9968,32.9968,0,0,1,.8027,7.1663,32.0422,32.0422,0,0,1-1.6362,8.8664c-.9253,2.9326-2.0669,5.927-2.8516,8.928,1.2022-2.9121,2.6641-5.6609,4.0181-8.5193a41.6878,41.6878,0,0,0,1.8223-4.4224,28.8581,28.8581,0,0,0,1.1172-4.7316c.0288-.1807.0336-.3609.0468-.5552,1.7217,6.467,1.6162,12.5879,1.9541,19.3071.4483,8.9185,2.1929,16.9363,9.1138,23.1277-.8823-6.5752-5.9375-12.1353-4.4634-18.8928.4951-2.2679,2.4527-3.7205,3.5293-5.6709a32.1928,32.1928,0,0,0,3.3047-10.5044c.5752-3.5867,1.4336-7.3008,1.9033-10.6724.9488-6.8118-2.3525-9.1457-5.4853-14.78s-5.2915-13.2163-1.9082-19.37c3.7842-6.8835,11.32-4.5024,17.3911-2.2051a7.3036,7.3036,0,0,1,2.5342,1.4427,6.594,6.594,0,0,1,2.0327,3.71c.7925,4.4746-.81,8.3486-1.71,12.7531-1.458,7.1253-1.2148,14.191,1.7183,20.88a18.5629,18.5629,0,0,0,5.4824,7.1746c2.6221,2.0029,5.1817.9392,7.9278,2.1221-5.6089-3.5127-7.4756-8.8858-7.0723-15.2725a24.3152,24.3152,0,0,1,1.6606-6.2866c.0357.374.0122.7417.0513,1.1047a28.97,28.97,0,0,0,1.875,7.9224,11.3832,11.3832,0,0,0,2.1372,3.438,5.3072,5.3072,0,0,0,3.4273,1.76,5.0816,5.0816,0,0,1-2.9468-2.1575,10.4384,10.4384,0,0,1-1.4483-3.4519,25.4788,25.4788,0,0,1-.5634-7.5317,26.2256,26.2256,0,0,1,1.6767-7.1843,16.9688,16.9688,0,0,1,1.44-2.9261c.5683,3.1382,6.8007,4.722,9.269,2.6644,4.2632-3.5545,5.2749-10.9283,6.938-15.7769,1.3574-3.957,2.187-6.7014,4.3218-10.0239.01-.0161.0122-.02.0088-.0064-.0225.0857-.07.2034-.1.31a55.2108,55.2108,0,0,0-1.5464,7.0381c-.3443,2.3433-.5186,4.7324-.7163,7.0322-.3951,4.5945-.6729,8.9266-1.94,13.3748s-3.5029,8.343-5.1582,12.75a82.03,82.03,0,0,0-5.1723,27.6011c-.1617,9.4851,1.0922,18.5749,2.43,27.895-.9189-9.2922-1.78-18.4932-1.2-27.8377a79.35,79.35,0,0,1,6.2017-26.6772c1.8359-4.312,4.3462-8.3342,5.8369-12.8069a73.6358,73.6358,0,0,0,2.69-13.8984,66.1706,66.1706,0,0,1,2.7027-13.1372,70.0821,70.0821,0,0,1,3.1635-7.5262c.063-.133.293-.1035.376-.2177-.4394,1.9211-.91,3.7873-1.2392,5.7387a56.2911,56.2911,0,0,0-.8433,9.451c.0112,3.1264.3364,6.2116.4629,9.2754a43.3268,43.3268,0,0,1-.2808,8.9636,21.3118,21.3118,0,0,1-3.2329,8.2126c-1.6523,2.5979-3.6567,5.003-4.9165,7.8819a13.1831,13.1831,0,0,0-1.0893,4.563,8.4956,8.4956,0,0,0,1.05,4.4616,8.33,8.33,0,0,1-.7422-4.4385,12.499,12.499,0,0,1,1.3413-4.3278c1.4477-2.7664,3.5-4.9021,5.3755-7.4353a23.3585,23.3585,0,0,0,4.0307-8.56,46.6237,46.6237,0,0,0,.9336-9.3718c.0786-3.1028-.0356-6.1133.1621-9.146a48.4753,48.4753,0,0,1,1.4063-8.7563c.7309-2.938,1.72-5.8657,2.6694-8.7517,1.47-.615,3.0386-1.1468,4.4785-1.7762,7.8218-3.4187,14.4781-8.0085,21.5728-12.7634,5.7705-3.8672,11.4409-7.44,15.4888-13.3081,1.7885-2.5928,3.0918-5.487,5.9389-7.1453a16.2043,16.2043,0,0,1,6.273-1.7348c2.2739-.31,4.8354-.7459,7.188-.9448,1.6733-.1416,3.4614-.78,5.0463.1587,11.709,6.9333,6.99,22.5275,8.837,33.5131,1.7724,10.5437,6.852,16.7827,15.6933,21.5935-2.6553-4.4626-5.5576-8.4487-6.8608-13.5686-1.5327-6.0217-.1856-11.799,1.2221-17.7463.3824,1.2175.6685,2.4277,1.0938,3.6467,1.31,3.751,2.5762,7.417,4.8955,10.7012a13.0965,13.0965,0,0,0,4.356,3.8792,10,10,0,0,0,5.5649,1.176A9.6712,9.6712,0,0,1,674.0374,245.6491ZM458.0184,131.9577c-2.2911,4.4248-2.8,5.9082-6.2354,8.48-.6308-4.4113,1.5933-9.0268,3.6-12.58a19.604,19.604,0,0,1,9.7012-8.9546C462.116,121.6025,459.46,129.1723,458.0184,131.9577Z" fill="#42221b"/><g id="laptop"><path d="M1102.0689,378.6271,775.9026,434.6518a9.6984,9.6984,0,0,0-8.0282,8.8184L753.3605,633.2928,578.6389,663.3044a10.9405,10.9405,0,0,0-8.9307,12.6353l.09-.6021a10.94,10.94,0,0,0,12.6348,8.9307l344.05-59.0963c5.9552-1.0233,11.3485,2.5661,10.3257-3.389l-.7468-4.3462,154.5222-26.542a9.6971,9.6971,0,0,0,8.0276-8.8183l14.7692-193.1524A9.6977,9.6977,0,0,0,1102.0689,378.6271Z" fill="#e4e4e4"/><circle cx="933.2431" cy="512.7734" r="36.2398" fill="#fff"/></g><path d="M1089.0047,764.1672c-15.7485-12.848-32.9336-22.8575-49.5524-32.5371l-6.6209-3.8564-5.383,5.4527c-28.29,28.6566-55.4147,57.4542-84.2573,77.8554-16.476,11.6547-29.0912,21.8546-51.1379,33.4168-13.988,7.3359-27.3076,8.9206-43.7527,13.545-5.7284,1.6108-11.6526,3.2767-17.462,5.2026l-.632.2094-.5973.2921c-15.01,7.3358-34.9241,8.128-42.79,8.1282-1.7223,0-3.4166-.0354-5.0337-.1051-5.0674-.2187-9.8136-.2487-14.1873-.2487l-6.1578.0072c-14.4854,0-25.728-.4119-38.53-5.7452l-67.6455-28.1816c-8.9414-3.725-18.1877-7.5769-24.08-14.15-8.2428-9.1944-9.472-24.905-2.9235-37.3562a43.0492,43.0492,0,0,1,5.4389-7.9525l1.8371-2.14.43-2.7867a19.5817,19.5817,0,0,1,.8713-3.5587c4.2965-12.2006,295.1726-218.3768,315.0188-230.9069,16.9883-10.7264,35.3188-16.6336,51.6163-16.6336a76.1948,76.1948,0,0,1,11.3854,1.0269c17.4427,2.6281,50.6113,49.4761,50.6113,49.4761s7.6683-3.0442,10.68-3.0442c7.4256,0,18.0034,3.1154,33.29,9.8044,24.2006,10.5907,240.5632,175.5,321.8963,229.0009,7.1034,4.6727,6.5071,8.03,6.508,8.053.0531,1.4363-4.6323,6.273-7.15,8.8714-2.57,2.6541-5.4852,5.6623-8.349,9.1839q-7.4173,9.12-14.8048,18.26c-8.512,10.5153-17.3135,21.3886-26.0387,32.0117-1.2987,1.5813,1.0494-14.3519.5622-13.9571-1.45-.5751-109.6882-55.6125-109.6882-55.6125.4014.5476,2.6351,3.6079,7.2442,10.1171,4.5117,6.37,5.1389,9.5914,4.7993,10.49-.7015,1.8523-5.0492,4.933-8.8845,7.6508-3.0567,2.1658-6.52,4.6207-10.0394,7.6113q-9.1048,7.74-18.1867,15.5075c-10.4726,8.9435-6.1322,22.3751-20.1219,22.3866C1219.1172,888.9628,1111.0344,782.1387,1089.0047,764.1672Z" fill="#002e5d"/><path d="M1398.3094,846.81c6.2553-8.17,13.0586-15.8671,21.3039-21.9562,3.414-2.5212,7.4192-4.8345,11.6363-4.3579,4.3484.4914,7.7556,3.7827,11.4582,6.1151,9.0507,5.7012,20.4548,5.8227,31.1253,5.0751,20.486-1.4354,40.7009-5.3936,60.8537-9.3433L1564.1,816.578c17.6245-3.4542,44.5514-19.012,59.4788-.8352,9.035,11.0016,3.5959,27.4521-2.8661,40.1371a401.4664,401.4664,0,0,1-24.4919,41.6667c-4.06,6.0418-8.5331,12.1958-15,15.5378-6.1129,3.16-13.2451,3.4171-20.0953,4.0692a154.9864,154.9864,0,0,0-60.2211,18.6591c-17.2664,9.5677-33.2865,22.6782-52.6975,26.2683-15.4459,2.8567-14.7254,3.4238-29.5749-1.6974-4.1288-1.4239-8.2821-3.0047-11.7571-5.65-7.3138-5.5682-16.2549-14.5449-17.301-23.89-1.3138-11.7374-3.1146-23.0931-6.8882-34.3384-1.5494-4.6171-3.362-9.2649-3.4334-14.1345-.1248-8.5056,5.0028-16.0836,9.9242-23.0219C1392.1584,855.1451,1395.1646,850.9176,1398.3094,846.81Z" fill="#1c76bc"/><path d="M1442.7254,933.9053c5.8986,1.767,12.0671,3.5017,16.6617,7.6012s7.0218,11.38,3.6816,16.5533c-3.8272,5.9273-12.2646,5.9315-19.3174,6.1268-30.3971.8421-59.508,17.4881-89.71,13.9507-18.3072-2.1443-34.8932-11.53-52.6089-16.62-16.4574-4.728-33.8942-5.7415-50.014-11.5166s-31.6214-18.1327-33.9417-35.0978c-2.9391-21.489,15.4613-39.33,32.1782-53.149,8.0192-6.629,17.2513-17.42,26.5527-21.9654,10.5542-5.1571,12.8576,1.2244,21.0354,9.0927a360.1889,360.1889,0,0,0,145.4827,85.0237Z" fill="#1c76bc"/><path d="M551.7932,937.3378h0a222.0934,222.0934,0,0,0,65.5892-2.099h0a17.2488,17.2488,0,0,0,16.6882-17.7917l-5.7393-179.3345A17.2488,17.2488,0,0,0,610.54,721.4245L544.95,723.5236a17.2486,17.2486,0,0,0-16.6881,17.7916L534.0016,920.65A17.2486,17.2486,0,0,0,551.7932,937.3378Z" fill="#c4c4c4"/><path d="M546.2529,711.538h0a131.0834,131.0834,0,0,1,62.22-1.9913h0l.4685,14.64h0a125.5859,125.5859,0,0,1-62.22,1.9913h0Z" fill="#42221b"/><path d="M567.8237,697.0475h0a19.3652,19.3652,0,0,1,18.1965-.5824h0l.3444,10.76h0a18.481,18.481,0,0,1-18.1965.5824h0Z" fill="#42221b"/><path d="M533.9484,812.0615c.4093,12.79,6.6412,23.6689,18.4634,24.69,13.2944,1.1487,24.9465-10.4593,24.4471-26.0636s-12.87-26.4436-26.0636-24.4472C539.0626,788.0164,533.539,799.2711,533.9484,812.0615Z" fill="#42221b"/><polygon points="921.199 954.211 917.623 858.123 815.634 899.313 819.209 995.401 921.199 954.211" fill="#002e5d"/><polygon points="819.209 995.401 815.634 899.313 600.004 868.367 603.58 964.455 819.209 995.401" fill="#002e5d"/><polygon points="600.004 868.367 815.634 899.313 917.623 858.123 701.994 827.177 600.004 868.367" fill="#1c76bc"/><path d="M818.7957,865.8666,705.8612,849.659a4.3587,4.3587,0,0,0-2.2508.2728l-5.79,2.3382a4.3578,4.3578,0,0,0,1.0127,8.3543l112.9336,16.2082a4.3573,4.3573,0,0,0,2.251-.2729l5.7911-2.3388A4.3578,4.3578,0,0,0,818.7957,865.8666Z" fill="#42221b"/><path d="M842.1953,797.12c3.7494-5.86,7.5255-14.148,2.55-19.01-4.2736-4.1761-11.3564-1.9269-16.7892.56-3.6847-11.47-17.8767-18.2621-29.1207-13.9373-1.4577.5606-2.9584,1.29-4.5036,1.0637-2.2084-.3239-3.6365-2.4275-5.4586-3.7165-4.5281-3.2034-11.9766.0516-12.7018,5.5506a50.3468,50.3468,0,0,0-29.0915-3.4527c-3.3926.6146-6.7982,1.5853-10.2285,1.2368-6.5729-.6677-12.3092-6.0823-18.8786-5.38-9.8032,1.0477-12.8444,13.7391-12.9022,23.5981a292.157,292.157,0,0,0,9.4167,75.2553c23.2224.1575,85.2613,13.1443,91.8391,11.2859,9.2138-2.6032,10.0774-22.7754,13.2858-30.6047A268.699,268.699,0,0,1,842.1953,797.12Z" fill="#fff"/><path d="M572.29,598.8038c-4.7006-6.2221-6.5415-14.0692-8.58-21.5962a286.604,286.604,0,0,0-32.4955-75.16c-2.0134-3.2716-4.1458-7.33-2.3487-10.7247,1.7581-3.3215,6.58-3.891,9.9267-2.181s5.5483,4.9965,7.5826,8.1564q10.6764,16.5841,20.6842,33.5862-7.367-35.4714-14.734-70.9429c5.1082-3.4177,10.6477,3.717,12.6907,9.5136l16.8391,47.7771-2.3245-40.664c-.7112-12.4421-1.2814-25.5843,4.4753-36.6375,4.4781-.666,6.827,5.0676,7.6169,9.5256a561.2847,561.2847,0,0,0,13.4687,57.94,150.7077,150.7077,0,0,1,2.5761-54.4111c.6631-2.838,1.8309-6.1107,4.6374-6.8965,4.7668-1.3347,7.4335,5.3782,7.5352,10.3273.5165,25.1132-5.6075,53.1684,9.536,73.2087,1.7289,2.2879,3.8834,4.5031,6.6841,5.1192,4.3914.966,8.6765-2.3967,10.8827-6.3146s3.0645-8.46,5.0784-12.48a24.4562,24.4562,0,0,1,22.1548-13.1773c.1261,4.9832-2.3606,9.6136-4.7773,13.9734q-16.8384,30.3767-33.6767,60.7533c-4.8034,8.6653-9.7783,17.5415-17.3964,23.8759C606.5021,611.2061,582.2907,612.0424,572.29,598.8038Z" fill="#f7e2d0"/></g></g></g></svg>